
<!-- Generator: visioncortex VTracer 0.6.4 -->
<svg version="1.1" xmlns="http://www.w3.org/2000/svg" viewBox="0 0 866 847" preserveAspectRatio="xMidYMid meet">
<path d="M0 0 C0.792 -0.004 1.584 -0.008 2.4 -0.012 C5.057 -0.022 7.714 -0.018 10.371 -0.014 C12.275 -0.018 14.179 -0.023 16.082 -0.029 C21.256 -0.043 26.429 -0.043 31.603 -0.041 C35.92 -0.04 40.236 -0.045 44.553 -0.049 C54.736 -0.061 64.918 -0.061 75.1 -0.055 C85.61 -0.049 96.12 -0.061 106.63 -0.083 C115.649 -0.1 124.668 -0.106 133.687 -0.103 C139.076 -0.101 144.465 -0.104 149.853 -0.118 C154.92 -0.13 159.987 -0.128 165.053 -0.115 C166.914 -0.113 168.774 -0.116 170.635 -0.124 C173.173 -0.134 175.71 -0.126 178.248 -0.114 C178.986 -0.121 179.723 -0.128 180.483 -0.136 C184.897 -0.089 187.666 0.572 191.188 3.261 C195.939 9.2 195.34 17.378 195.32 24.651 C195.322 25.429 195.323 26.207 195.325 27.008 C195.327 29.509 195.321 32.01 195.313 34.511 C195.31 35.369 195.308 36.228 195.306 37.112 C195.097 105.787 180.68 173.013 149.188 234.261 C148.291 236.045 147.395 237.83 146.5 239.616 C140.757 250.942 134.183 261.669 127.188 272.261 C126.717 272.974 126.246 273.687 125.761 274.422 C119.729 283.498 113.318 292.202 106.468 300.676 C105.266 302.164 104.074 303.659 102.883 305.155 C98.065 311.148 92.986 316.839 87.758 322.472 C85.607 324.806 83.508 327.168 81.438 329.573 C76.523 335.223 71.219 340.302 65.547 345.183 C63.156 347.288 60.827 349.448 58.5 351.623 C52.601 357.131 46.593 362.343 40.188 367.261 C38.839 368.305 37.49 369.349 36.141 370.394 C28.618 376.199 21.097 381.988 13.188 387.261 C12.147 387.954 11.107 388.648 10.035 389.362 C-36.77 420.18 -89.643 441.621 -144.812 451.261 C-145.997 451.476 -147.182 451.691 -148.402 451.913 C-154.103 452.918 -159.76 453.599 -165.535 454.015 C-167.974 454.197 -167.974 454.197 -170.812 455.261 C-173.306 455.357 -175.772 455.397 -178.265 455.39 C-179.4 455.393 -179.4 455.393 -180.558 455.395 C-183.059 455.4 -185.561 455.397 -188.062 455.394 C-189.8 455.394 -191.537 455.395 -193.274 455.396 C-196.916 455.398 -200.557 455.396 -204.199 455.391 C-208.87 455.385 -213.541 455.389 -218.212 455.395 C-221.799 455.398 -225.387 455.397 -228.974 455.395 C-230.697 455.394 -232.419 455.395 -234.142 455.397 C-236.548 455.4 -238.953 455.396 -241.359 455.39 C-242.073 455.392 -242.787 455.394 -243.522 455.396 C-246.567 455.383 -248.899 455.232 -251.812 454.261 C-253.567 454.024 -255.328 453.824 -257.09 453.647 C-269.958 452.297 -282.602 450.686 -295.229 447.841 C-297.006 447.442 -298.786 447.053 -300.567 446.673 C-351.608 435.761 -401.03 414.051 -443.578 383.843 C-445.889 382.206 -448.223 380.607 -450.562 379.011 C-462.228 370.827 -473.082 361.619 -483.812 352.261 C-484.753 351.446 -484.753 351.446 -485.713 350.615 C-497.739 340.163 -509.341 329.284 -519.812 317.261 C-520.464 316.518 -520.464 316.518 -521.129 315.761 C-537.534 297.012 -552.078 276.664 -564.812 255.261 C-565.585 253.993 -566.359 252.727 -567.133 251.46 C-585.001 221.969 -620.812 161.427 -613.812 125.261 C-612.021 122.979 -611.251 122.351 -608.375 121.761 C-604.672 122.483 -603.964 124.185 -601.812 127.261 C-600.309 130.064 -598.978 132.945 -597.625 135.823 C-593.287 144.773 -588.364 153.28 -583.187 161.761 C-582.655 162.636 -582.655 162.636 -582.111 163.529 C-575.615 174.181 -568.876 184.676 -561.437 194.698 C-560.976 195.322 -560.515 195.946 -560.039 196.59 C-558.635 198.484 -557.225 200.373 -555.812 202.261 C-555.376 202.846 -554.94 203.431 -554.49 204.033 C-549.648 210.503 -544.642 216.719 -539.148 222.657 C-536.892 225.172 -534.785 227.757 -532.683 230.401 C-527.925 236.243 -522.785 241.585 -517.437 246.886 C-516.569 247.762 -515.7 248.639 -514.805 249.542 C-509.572 254.759 -504.156 259.564 -498.388 264.181 C-496.079 266.046 -493.843 267.961 -491.625 269.933 C-472.255 287.039 -450.132 300.434 -427.812 313.261 C-426.612 313.953 -426.612 313.953 -425.387 314.66 C-392.672 333.339 -355.36 344.825 -318.812 353.261 C-318.064 353.434 -317.316 353.607 -316.545 353.786 C-291.806 359.339 -266.024 360.477 -240.75 360.448 C-239.849 360.448 -238.948 360.448 -238.02 360.447 C-224.195 360.428 -210.54 360.031 -196.812 358.261 C-195.917 358.148 -195.022 358.036 -194.1 357.92 C-187.987 357.137 -181.899 356.231 -175.812 355.261 C-173.925 354.975 -173.925 354.975 -172 354.683 C-122.552 346.37 -72.671 326.767 -30.812 299.261 C-29.818 298.62 -28.825 297.979 -27.801 297.319 C-10.156 285.789 6.009 272.974 21.492 258.71 C23.641 256.757 25.815 254.85 28.012 252.952 C32.206 249.29 36.191 245.449 40.125 241.511 C40.823 240.813 41.521 240.114 42.24 239.395 C46.886 234.698 51.17 229.89 55.254 224.694 C57.129 222.335 59.093 220.111 61.125 217.886 C66.16 212.28 70.67 206.283 75.188 200.261 C75.857 199.376 76.526 198.492 77.215 197.581 C83.286 189.412 88.774 180.874 94.188 172.261 C94.673 171.491 95.158 170.721 95.658 169.928 C101.917 159.93 107.635 149.737 112.938 139.198 C113.463 138.157 113.989 137.115 114.531 136.042 C115.011 135.071 115.49 134.101 115.985 133.101 C116.411 132.238 116.837 131.376 117.277 130.487 C118.377 128.199 118.377 128.199 118.188 125.261 C110.311 125.167 102.435 125.097 94.558 125.053 C90.899 125.033 87.241 125.005 83.582 124.959 C80.042 124.915 76.502 124.891 72.961 124.881 C70.974 124.87 68.987 124.839 67 124.808 C56.791 124.805 46.175 126.096 38.578 133.601 C33.419 139.759 32.388 146.484 31.402 154.27 C30.914 157.697 30.426 159.954 28.281 162.714 C23.033 166.591 16.229 165.484 9.991 165.501 C7.827 165.511 5.664 165.542 3.5 165.573 C2.117 165.58 0.735 165.585 -0.648 165.589 C-2.528 165.603 -2.528 165.603 -4.447 165.617 C-8.113 165.229 -9.941 164.542 -12.812 162.261 C-15.008 158.885 -15.066 156.055 -15.073 152.081 C-15.08 150.812 -15.087 149.543 -15.095 148.236 C-15.092 146.832 -15.09 145.428 -15.087 144.025 C-15.091 142.544 -15.097 141.064 -15.103 139.584 C-15.116 135.566 -15.116 131.547 -15.114 127.528 C-15.113 124.174 -15.118 120.819 -15.123 117.464 C-15.134 109.549 -15.134 101.634 -15.128 93.719 C-15.122 85.554 -15.134 77.39 -15.156 69.225 C-15.173 62.214 -15.179 55.203 -15.176 48.192 C-15.174 44.005 -15.177 39.819 -15.191 35.632 C-15.203 31.694 -15.201 27.757 -15.188 23.82 C-15.186 22.375 -15.189 20.931 -15.197 19.487 C-15.207 17.514 -15.197 15.541 -15.187 13.568 C-15.187 11.912 -15.187 11.912 -15.187 10.223 C-14.755 6.808 -13.913 4.975 -11.812 2.261 C-8.302 -0.417 -4.231 -0.022 0 0 Z " transform="translate(623.8123626708984,381.7393035888672)"/>
<path d="M0 0 C40.961 -1.109 81.316 6.072 120.063 19.083 C120.985 19.387 121.906 19.692 122.855 20.005 C146.447 27.941 170.142 39.61 191.063 53.083 C191.967 53.656 191.967 53.656 192.89 54.242 C200.854 59.32 208.544 64.787 216.188 70.333 C216.995 70.911 217.801 71.489 218.631 72.085 C223.103 75.37 226.984 78.429 230.063 83.083 C233.245 105.322 217.933 130.651 205.399 147.743 C193.941 163.016 179.641 173.001 163.063 182.083 C162.34 182.482 161.617 182.882 160.872 183.293 C157.884 184.597 155.261 184.373 152.063 184.083 C149.371 182.017 148.605 180.248 147.958 176.969 C147.784 176.144 147.609 175.319 147.429 174.469 C147.247 173.579 147.064 172.688 146.876 171.77 C141.742 148.742 133.756 128.968 117.063 112.083 C116.334 111.281 115.604 110.479 114.853 109.653 C98.313 91.883 71.479 81.925 47.517 80.982 C44.746 80.935 41.976 80.918 39.204 80.915 C38.179 80.911 37.154 80.908 36.098 80.904 C33.933 80.899 31.768 80.897 29.603 80.897 C26.364 80.895 23.126 80.877 19.888 80.858 C6.498 80.821 -6.643 81.47 -19.937 83.083 C-21.1 83.223 -22.264 83.364 -23.463 83.509 C-84.719 91.607 -143.987 116.647 -192.937 154.083 C-194.193 155.028 -195.449 155.973 -196.706 156.918 C-209.521 166.657 -220.878 177.944 -232.289 189.26 C-233.286 190.249 -234.285 191.237 -235.285 192.223 C-241.981 198.833 -248.119 205.689 -253.937 213.083 C-254.418 213.685 -254.9 214.287 -255.396 214.907 C-262.364 223.65 -268.742 232.781 -274.937 242.083 C-275.338 242.678 -275.74 243.273 -276.153 243.886 C-289.036 263.103 -299.612 284.53 -307.937 306.083 C-308.224 306.804 -308.511 307.525 -308.808 308.269 C-329.976 361.46 -336.455 418.71 -332.648 475.475 C-332.39 479.343 -332.155 483.212 -331.937 487.083 C-331.881 488.036 -331.826 488.99 -331.769 489.973 C-331.576 495.636 -331.576 495.636 -333.304 497.778 C-334.937 499.083 -334.937 499.083 -337.312 499.645 C-340.504 498.961 -341.695 497.593 -343.692 495.082 C-346.176 491.09 -347.247 486.579 -348.499 482.083 C-348.777 481.13 -349.055 480.177 -349.341 479.196 C-349.917 477.212 -350.484 475.225 -351.043 473.236 C-351.655 471.074 -352.287 468.918 -352.934 466.767 C-355.536 458.027 -357.442 449.246 -358.999 440.27 C-359.19 439.176 -359.19 439.176 -359.385 438.06 C-369.781 377.813 -366.912 315.137 -346.937 257.083 C-346.586 256.044 -346.236 255.006 -345.875 253.936 C-333.804 218.298 -317.288 184.469 -294.937 154.083 C-294.303 153.216 -294.303 153.216 -293.657 152.332 C-284.742 140.158 -275.276 128.637 -265.112 117.481 C-263.636 115.854 -262.176 114.213 -260.729 112.559 C-256.257 107.468 -251.608 102.813 -246.511 98.348 C-244.802 96.844 -243.116 95.313 -241.456 93.754 C-226.753 79.963 -209.885 67.966 -192.937 57.083 C-192.081 56.527 -191.225 55.971 -190.343 55.399 C-166.307 40.187 -140.745 28.457 -113.937 19.083 C-113.218 18.825 -112.499 18.568 -111.758 18.303 C-98.717 13.642 -85.429 10.181 -71.937 7.083 C-71.213 6.916 -70.489 6.75 -69.744 6.579 C-46.871 1.477 -23.33 0.656 0 0 Z " transform="translate(384.9365234375,8.91748046875)"/>
<path d="M0 0 C4.408 0.52 6.656 2.01 10 4.875 C10.964 5.688 11.928 6.502 12.922 7.34 C14.983 9.113 17.031 10.901 19.078 12.691 C48.752 38.492 86.915 56.707 125.372 64.465 C127.128 64.822 128.88 65.197 130.628 65.59 C157.644 71.622 185.965 70.411 213.113 65.875 C218.192 65.062 222.862 64.588 228 65 C230.458 66.928 230.94 67.64 231.469 70.793 C231.691 94.941 218.277 118.999 203 137 C202.206 137.94 201.412 138.879 200.594 139.848 C198.45 142.29 196.249 144.655 194 147 C193.234 147.817 192.469 148.635 191.68 149.477 C166.232 175.906 128.019 193.922 91.144 195.126 C89.721 195.131 88.298 195.131 86.875 195.127 C86.085 195.129 85.295 195.13 84.48 195.132 C81.843 195.136 79.207 195.133 76.57 195.129 C74.672 195.131 72.773 195.133 70.874 195.135 C65.707 195.139 60.54 195.137 55.373 195.134 C49.9 195.132 44.427 195.134 38.954 195.136 C29.703 195.138 20.452 195.135 11.202 195.13 C1.834 195.126 -7.533 195.125 -16.901 195.13 C-105.511 195.175 -105.511 195.175 -141.792 194.728 C-144.483 194.695 -147.174 194.669 -149.865 194.647 C-153.45 194.615 -157.033 194.565 -160.617 194.507 C-161.646 194.501 -162.675 194.495 -163.735 194.489 C-164.661 194.47 -165.588 194.45 -166.542 194.43 C-167.736 194.414 -167.736 194.414 -168.954 194.398 C-171.524 193.898 -172.426 193.06 -174 191 C-174.412 188.251 -174.535 186.731 -172.866 184.452 C-170.302 182.457 -167.93 182.007 -164.77 181.273 C-163.503 180.968 -162.236 180.664 -160.931 180.349 C-160.26 180.191 -159.588 180.033 -158.895 179.87 C-126.828 172.255 -94.694 159.492 -70 137 C-69.421 136.483 -68.841 135.966 -68.244 135.434 C-60.078 128.14 -52.596 120.77 -46 112 C-45.33 111.134 -45.33 111.134 -44.646 110.251 C-25.198 84.869 -11.131 54.192 -7.27 22.266 C-7.149 21.279 -7.029 20.292 -6.905 19.275 C-6.682 17.347 -6.48 15.417 -6.302 13.485 C-5.627 7.407 -4.393 4.307 0 0 Z " transform="translate(625,100)"/>
<path d="M0 0 C0.896 0.438 1.793 0.877 2.717 1.328 C9.672 4.87 16.91 8.896 21.312 15.5 C21.125 18.062 21.125 18.062 20.312 20.5 C14.737 24.217 7.887 22.39 1.552 21.432 C-39.503 15.238 -83.447 22.17 -117.453 47.203 C-120.949 49.869 -124.335 52.656 -127.688 55.5 C-128.569 56.24 -129.451 56.98 -130.359 57.742 C-142.112 67.96 -151.532 79.276 -159.688 92.5 C-160.048 93.068 -160.409 93.636 -160.781 94.221 C-167.034 104.102 -171.073 114.429 -174.688 125.5 C-174.937 126.259 -175.186 127.017 -175.442 127.799 C-187.633 165.772 -183.417 208.962 -165.562 244.438 C-164.311 246.818 -163.009 249.156 -161.688 251.5 C-161.102 252.57 -160.517 253.64 -159.914 254.742 C-152.417 268.074 -143.016 279.642 -131.902 290.125 C-130.688 291.5 -130.688 291.5 -130.688 293.5 C-130.106 293.741 -129.525 293.982 -128.926 294.23 C-126.255 295.745 -124.787 297.418 -122.875 299.812 C-122.25 300.572 -121.625 301.331 -120.98 302.113 C-119.688 304.5 -119.688 304.5 -119.801 307.168 C-120.688 309.5 -120.688 309.5 -123.688 311.5 C-130.492 311.297 -135.94 309.022 -142.062 306.188 C-143.021 305.747 -143.979 305.307 -144.966 304.854 C-162.481 296.555 -177.55 284.631 -191.688 271.5 C-192.381 270.884 -193.075 270.268 -193.789 269.633 C-225.538 240.024 -240.07 196.922 -242.875 154.676 C-242.944 151.928 -242.849 149.245 -242.688 146.5 C-242.646 145.786 -242.605 145.071 -242.563 144.335 C-240.628 113.535 -231.2 82.51 -212.688 57.5 C-211.968 56.498 -211.249 55.497 -210.508 54.465 C-205.613 47.767 -200.384 41.527 -194.688 35.5 C-193.953 34.701 -193.218 33.902 -192.461 33.078 C-163.391 2.55 -119.549 -15.754 -77.754 -17.469 C-49.973 -17.855 -24.933 -12.251 0 0 Z " transform="translate(425.6875,301.5)"/>
<path d="M0 0 C4.408 0.52 6.656 2.01 10 4.875 C10.964 5.688 11.928 6.502 12.922 7.34 C14.983 9.113 17.031 10.901 19.078 12.691 C48.752 38.492 86.915 56.707 125.372 64.465 C127.128 64.822 128.88 65.197 130.628 65.59 C157.675 71.629 186.03 70.403 213.211 65.875 C217.894 65.1 222.26 64.815 227 65 C227 65.99 227 66.98 227 68 C224 68.461 221 68.919 218 69.375 C217.18 69.501 216.36 69.628 215.516 69.758 C212.679 70.188 209.84 70.595 207 71 C205.827 71.176 204.654 71.353 203.445 71.535 C192.614 73.051 181.929 73.398 171 73.375 C170.103 73.375 169.205 73.375 168.281 73.375 C153.851 73.348 140.087 72.312 126 69 C124.877 68.752 124.877 68.752 123.731 68.499 C119.11 67.476 114.555 66.291 110 65 C109.051 64.736 109.051 64.736 108.083 64.466 C91.267 59.73 75.647 52.612 60.312 44.309 C56.781 42.397 53.197 40.646 49.562 38.938 C43.106 35.75 37.64 31.436 32 27 C30.711 26.059 29.419 25.121 28.125 24.188 C22.958 20.326 18.142 16.027 13.27 11.805 C12.71 11.327 12.15 10.85 11.573 10.358 C10.171 9.148 8.807 7.893 7.449 6.633 C4.414 4.609 2.575 4.872 -1 5 C-1.142 6.168 -1.142 6.168 -1.288 7.361 C-5.565 41.828 -14.266 72.016 -34 101 C-34.625 101.978 -34.625 101.978 -35.262 102.977 C-43.88 116.341 -54.689 128.915 -67 139 C-67.971 139.801 -68.941 140.601 -69.941 141.426 C-72.621 143.626 -75.307 145.817 -78 148 C-78.66 147.67 -79.32 147.34 -80 147 C-76.768 142.859 -73.348 139.452 -69.367 136.035 C-60.707 128.59 -52.948 121.124 -46 112 C-45.549 111.418 -45.098 110.837 -44.633 110.238 C-25.192 84.859 -11.13 54.184 -7.27 22.266 C-7.149 21.279 -7.029 20.292 -6.905 19.275 C-6.682 17.347 -6.48 15.417 -6.302 13.485 C-5.627 7.407 -4.393 4.307 0 0 Z " transform="translate(625,100)"/>
<path d="M0 0 C0.99 0.33 1.98 0.66 3 1 C0.895 4.197 -1.241 7.347 -3.5 10.438 C-5.508 13.227 -7.234 16.102 -8.898 19.113 C-10.194 21.332 -11.618 23.438 -13.062 25.562 C-15.345 28.931 -17.214 32.339 -19 36 C-19.66 36.66 -20.32 37.32 -21 38 C-21.682 39.603 -22.36 41.208 -23.02 42.82 C-24.183 45.408 -25.547 47.839 -26.938 50.312 C-29.361 54.674 -31.328 59.029 -33.043 63.711 C-34 66 -34 66 -35.43 68.273 C-37.455 71.789 -38.654 75.413 -39.938 79.25 C-43.04 88.324 -43.04 88.324 -45.062 92.5 C-47.451 97.558 -48.836 102.954 -50.338 108.326 C-51.907 113.907 -51.907 113.907 -53 115 C-53.391 116.512 -53.74 118.035 -54.062 119.562 C-54.239 120.389 -54.416 121.215 -54.598 122.066 C-54.73 122.704 -54.863 123.343 -55 124 C-55.33 123.01 -55.66 122.02 -56 121 C-55.505 120.01 -55.505 120.01 -55 119 C-55.66 119 -56.32 119 -57 119 C-55.658 110.076 -52.666 101.8 -49.562 93.375 C-49.297 92.65 -49.032 91.925 -48.758 91.178 C-36.861 58.785 -21.007 27.495 0 0 Z " transform="translate(91,162)"/>
<path d="M0 0 C3.361 -0.002 6.722 -0.02 10.083 -0.039 C20.049 -0.066 29.941 0.041 39.862 1.064 C40.609 1.141 41.355 1.218 42.125 1.297 C64.331 3.915 82.478 17.356 98.198 32.185 C99.227 33.15 99.227 33.15 100.276 34.135 C114.792 48.16 123.995 67.131 126.198 87.185 C126.858 87.185 127.518 87.185 128.198 87.185 C129.188 92.135 130.178 97.085 131.198 102.185 C137.093 102.185 137.771 102.136 142.198 99.185 C142.966 98.897 143.735 98.608 144.526 98.31 C147.494 97.061 149.794 95.465 152.385 93.56 C156.98 90.185 156.98 90.185 159.198 90.185 C159.077 91.935 159.077 91.935 158.198 94.185 C155.538 96.185 155.538 96.185 152.135 98.185 C151.545 98.533 150.954 98.88 150.346 99.238 C148.638 100.234 146.918 101.21 145.198 102.185 C144.408 102.649 143.618 103.113 142.803 103.592 C138.484 105.977 135.108 106.859 130.198 106.185 C127.52 104.099 126.741 102.357 126.093 99.072 C125.831 97.835 125.831 97.835 125.564 96.572 C125.381 95.681 125.199 94.791 125.01 93.873 C119.877 70.844 111.891 51.07 95.198 34.185 C94.104 32.983 94.104 32.983 92.987 31.756 C76.447 13.986 49.613 4.028 25.652 3.085 C22.88 3.038 20.11 3.021 17.339 3.017 C15.801 3.012 15.801 3.012 14.232 3.007 C12.067 3.002 9.902 3 7.738 3 C4.499 2.998 1.261 2.98 -1.978 2.961 C-15.367 2.924 -28.509 3.573 -41.802 5.185 C-42.966 5.326 -44.13 5.467 -45.329 5.612 C-113.594 14.637 -175.446 44.535 -228.802 87.185 C-229.462 86.855 -230.122 86.525 -230.802 86.185 C-227.879 82.451 -226.032 80.296 -221.802 78.185 C-220.023 76.573 -220.023 76.573 -218.365 74.748 C-215.675 71.979 -213.182 70.081 -209.802 68.185 C-208.625 67.324 -207.46 66.447 -206.302 65.56 C-198.587 59.712 -190.701 53.923 -182.095 49.451 C-180.056 48.326 -178.136 47.116 -176.181 45.853 C-171.492 42.902 -166.573 40.575 -161.552 38.248 C-159.682 37.373 -157.812 36.496 -155.943 35.619 C-155.053 35.201 -154.162 34.783 -153.245 34.353 C-150.224 32.909 -147.266 31.368 -144.302 29.81 C-139.281 27.257 -134.175 25.669 -128.771 24.119 C-125.511 23.094 -122.68 21.725 -119.677 20.123 C-113.276 16.922 -106.13 15.459 -99.208 13.834 C-96.868 13.418 -96.868 13.418 -95.802 12.185 C-92.707 11.553 -89.607 11.003 -86.495 10.467 C-82.358 9.728 -78.317 8.816 -74.251 7.748 C-67.56 6.045 -60.811 4.921 -53.994 3.878 C-51.935 3.562 -49.878 3.233 -47.822 2.904 C-31.855 0.39 -16.134 -0.001 0 0 Z " transform="translate(406.802001953125,86.814697265625)"/>
<path d="M0 0 C4.408 0.52 6.656 2.01 10 4.875 C10.964 5.688 11.928 6.502 12.922 7.34 C14.983 9.113 17.031 10.901 19.078 12.691 C48.752 38.492 86.915 56.707 125.372 64.465 C127.128 64.822 128.88 65.197 130.628 65.59 C157.675 71.629 186.03 70.403 213.211 65.875 C217.894 65.1 222.26 64.815 227 65 C227 65.99 227 66.98 227 68 C224 68.461 221 68.919 218 69.375 C217.18 69.501 216.36 69.628 215.516 69.758 C212.679 70.188 209.84 70.595 207 71 C205.827 71.176 204.654 71.353 203.445 71.535 C192.614 73.051 181.929 73.398 171 73.375 C170.103 73.375 169.205 73.375 168.281 73.375 C153.851 73.348 140.087 72.312 126 69 C124.877 68.752 124.877 68.752 123.731 68.499 C119.11 67.476 114.555 66.291 110 65 C109.051 64.736 109.051 64.736 108.083 64.466 C91.267 59.73 75.647 52.612 60.312 44.309 C56.781 42.397 53.197 40.646 49.562 38.938 C43.106 35.75 37.64 31.436 32 27 C30.711 26.059 29.419 25.121 28.125 24.188 C22.958 20.326 18.142 16.027 13.27 11.805 C12.71 11.327 12.15 10.85 11.573 10.358 C10.171 9.148 8.807 7.893 7.449 6.633 C4.414 4.609 2.575 4.872 -1 5 C-1.142 6.168 -1.142 6.168 -1.288 7.361 C-5.565 41.828 -14.266 72.016 -34 101 C-34.625 101.978 -34.625 101.978 -35.262 102.977 C-43.88 116.341 -54.689 128.915 -67 139 C-67.971 139.801 -68.941 140.601 -69.941 141.426 C-72.621 143.626 -75.307 145.817 -78 148 C-78.66 147.67 -79.32 147.34 -80 147 C-76.768 142.859 -73.348 139.452 -69.367 136.035 C-60.707 128.59 -52.948 121.124 -46 112 C-45.549 111.418 -45.098 110.837 -44.633 110.238 C-25.192 84.859 -11.13 54.184 -7.27 22.266 C-7.149 21.279 -7.029 20.292 -6.905 19.275 C-6.682 17.347 -6.48 15.417 -6.302 13.485 C-5.627 7.407 -4.393 4.307 0 0 Z " transform="translate(625,100)"/>
<path d="M0 0 C25.925 -2.053 52.637 6.94 77 15 C77.93 15.306 78.86 15.612 79.818 15.927 C103.399 23.864 127.087 35.533 148 49 C148.603 49.383 149.205 49.765 149.826 50.159 C157.791 55.237 165.481 60.704 173.125 66.25 C173.931 66.828 174.737 67.407 175.568 68.003 C180.04 71.287 183.921 74.347 187 79 C190.181 101.239 174.869 126.568 162.336 143.66 C155.739 152.45 148.658 160.488 139 166 C140.658 161.65 143.912 158.91 147.188 155.75 C155.794 148.054 155.794 148.054 161.957 138.598 C163.126 135.685 164.653 133.469 166.5 130.938 C170.068 126.032 172.319 121.346 174.5 115.688 C174.923 114.598 175.346 113.509 175.781 112.387 C178.062 106.049 179.665 99.553 181.188 93 C181.378 92.232 181.568 91.463 181.764 90.672 C182.876 85.843 183.326 81.893 182 77 C180.48 75.248 180.48 75.248 178.312 74.188 C174.094 71.673 170.102 68.999 166.125 66.125 C165.524 65.695 164.922 65.265 164.303 64.822 C161.529 62.837 158.775 60.832 156.043 58.789 C150.767 54.849 145.48 51.467 139.645 48.414 C137.225 47.12 134.939 45.721 132.625 44.25 C114.265 33.141 92.758 23.507 72 18 C72 17.34 72 16.68 72 16 C71.092 16.041 70.185 16.082 69.25 16.125 C66 16 66 16 64.168 15.082 C61.51 13.755 58.964 13.197 56.062 12.562 C55.043 12.337 54.023 12.111 52.973 11.879 C52.379 11.749 51.785 11.62 51.173 11.486 C49.494 11.111 47.818 10.721 46.143 10.326 C38.214 8.458 30.262 6.845 22.25 5.375 C21.096 5.158 19.943 4.942 18.754 4.719 C12.51 3.565 6.321 2.605 0 2 C0 1.34 0 0.68 0 0 Z " transform="translate(428,13)"/>
<path d="M0 0 C0.99 0.33 1.98 0.66 3 1 C0.895 4.197 -1.241 7.347 -3.5 10.438 C-5.508 13.227 -7.234 16.102 -8.898 19.113 C-10.194 21.332 -11.618 23.438 -13.062 25.562 C-15.345 28.931 -17.214 32.339 -19 36 C-19.66 36.66 -20.32 37.32 -21 38 C-21.682 39.603 -22.36 41.208 -23.02 42.82 C-24.183 45.408 -25.547 47.839 -26.938 50.312 C-29.361 54.674 -31.328 59.029 -33.043 63.711 C-34 66 -34 66 -35.43 68.273 C-37.455 71.789 -38.654 75.413 -39.938 79.25 C-43.04 88.324 -43.04 88.324 -45.062 92.5 C-47.451 97.558 -48.836 102.954 -50.338 108.326 C-51.907 113.907 -51.907 113.907 -53 115 C-53.391 116.512 -53.74 118.035 -54.062 119.562 C-54.239 120.389 -54.416 121.215 -54.598 122.066 C-54.73 122.704 -54.863 123.343 -55 124 C-55.33 123.01 -55.66 122.02 -56 121 C-55.505 120.01 -55.505 120.01 -55 119 C-55.66 119 -56.32 119 -57 119 C-55.658 110.076 -52.666 101.8 -49.562 93.375 C-49.297 92.65 -49.032 91.925 -48.758 91.178 C-36.861 58.785 -21.007 27.495 0 0 Z " transform="translate(91,162)"/>
<path d="M0 0 C-2.916 1.237 -5.665 2.166 -8.75 2.938 C-9.822 3.288 -10.895 3.639 -12 4 C-12.33 4.99 -12.66 5.98 -13 7 C-11.385 8.949 -10.491 9.909 -7.962 10.376 C-7.174 10.377 -6.386 10.377 -5.574 10.378 C-4.663 10.385 -3.752 10.393 -2.813 10.401 C-1.811 10.395 -0.809 10.388 0.224 10.381 C1.288 10.386 2.352 10.39 3.448 10.395 C7.031 10.407 10.614 10.398 14.198 10.388 C16.76 10.392 19.322 10.398 21.885 10.404 C28.137 10.416 34.389 10.415 40.641 10.406 C45.73 10.399 50.819 10.398 55.908 10.401 C56.632 10.402 57.356 10.402 58.103 10.403 C59.574 10.404 61.046 10.405 62.517 10.406 C76.334 10.414 90.151 10.404 103.967 10.388 C115.792 10.375 127.616 10.377 139.441 10.391 C153.185 10.407 166.929 10.413 180.673 10.404 C182.144 10.403 183.614 10.402 185.085 10.401 C185.809 10.401 186.532 10.401 187.278 10.4 C192.346 10.397 197.414 10.402 202.482 10.409 C209.333 10.418 216.184 10.411 223.035 10.394 C225.539 10.39 228.042 10.391 230.545 10.398 C244.391 10.431 257.425 9.736 271 7 C273.538 6.577 276.08 6.193 278.625 5.812 C279.669 5.654 280.713 5.495 281.789 5.332 C282.519 5.222 283.248 5.113 284 5 C284 5.66 284 6.32 284 7 C281.627 7.635 279.252 8.258 276.875 8.875 C275.906 9.136 275.906 9.136 274.918 9.402 C261.558 12.838 248.47 13.288 234.776 13.243 C232.876 13.244 230.976 13.246 229.076 13.249 C223.939 13.253 218.801 13.246 213.664 13.236 C208.209 13.227 202.755 13.229 197.3 13.229 C188.091 13.228 178.882 13.219 169.674 13.206 C160.354 13.192 151.034 13.185 141.715 13.185 C55.257 13.189 55.257 13.189 17.238 12.724 C14.545 12.691 11.853 12.665 9.16 12.643 C5.572 12.612 1.985 12.562 -1.602 12.505 C-2.632 12.499 -3.662 12.494 -4.723 12.488 C-5.651 12.468 -6.579 12.449 -7.536 12.429 C-8.333 12.419 -9.13 12.408 -9.951 12.397 C-12.523 11.898 -13.425 11.062 -15 9 C-15.411 6.261 -15.422 4.712 -14 2.312 C-9.679 -0.523 -4.951 -1.551 0 0 Z " transform="translate(466,282)"/>
<path d="M0 0 C0.33 0.66 0.66 1.32 1 2 C0.139 4.037 0.139 4.037 -1.246 6.559 C-1.75 7.492 -2.254 8.426 -2.773 9.388 C-3.322 10.394 -3.871 11.401 -4.438 12.438 C-9.937 22.748 -14.746 33.123 -19 44 C-19.292 44.73 -19.584 45.46 -19.884 46.212 C-41.043 99.397 -47.518 156.638 -43.712 213.392 C-43.453 217.26 -43.218 221.129 -43 225 C-42.945 225.954 -42.889 226.907 -42.832 227.89 C-42.64 233.55 -42.64 233.55 -44.363 235.703 C-46 237 -46 237 -48.438 237.438 C-51.771 236.868 -52.926 235.611 -55 233 C-55 232.34 -55 231.68 -55 231 C-54.34 231 -53.68 231 -53 231 C-52.34 231.99 -51.68 232.98 -51 234 C-49.35 233.67 -47.7 233.34 -46 233 C-46.504 216.328 -46.504 216.328 -47.562 199.688 C-49.51 173.866 -47.24 147.738 -43.438 122.188 C-43.326 121.436 -43.214 120.684 -43.099 119.91 C-41.224 107.447 -41.224 107.447 -40 105 C-39.68 102.459 -39.394 99.922 -39.125 97.375 C-38.541 92.284 -37.864 87.76 -35.781 83.043 C-34.729 80.292 -34.178 77.504 -33.562 74.625 C-32.454 69.579 -30.943 65.031 -28.91 60.293 C-28.016 58.04 -27.413 55.861 -26.875 53.5 C-26 50 -26 50 -24 48 C-22.948 44.88 -22.083 41.725 -21.195 38.555 C-20.075 35.223 -18.73 32.312 -17.12 29.205 C-15.887 26.777 -14.756 24.316 -13.633 21.836 C-13.016 20.494 -13.016 20.494 -12.387 19.125 C-11.544 17.288 -10.711 15.447 -9.887 13.602 C-7.279 7.979 -4.668 4.096 0 0 Z " transform="translate(96,271)"/>
<path d="M0 0 C3.361 -0.002 6.722 -0.02 10.083 -0.039 C20.024 -0.066 29.901 0.034 39.8 1.033 C40.907 1.142 40.907 1.142 42.037 1.253 C49.165 2.081 55.618 4.373 62.198 7.185 C62.198 7.845 62.198 8.505 62.198 9.185 C63.188 9.68 63.188 9.68 64.198 10.185 C60.249 11.502 57.811 10.236 54.073 8.873 C41.825 4.606 30.305 3.032 17.339 3.017 C15.801 3.012 15.801 3.012 14.232 3.007 C12.067 3.002 9.902 3 7.738 3 C4.499 2.998 1.261 2.98 -1.978 2.961 C-19.504 2.913 -36.746 4.1 -54.052 6.935 C-55.069 7.098 -56.086 7.261 -57.135 7.428 C-66.175 8.942 -75.052 11.033 -83.92 13.343 C-85.405 13.723 -85.405 13.723 -86.919 14.111 C-87.792 14.342 -88.664 14.573 -89.563 14.812 C-91.802 15.185 -91.802 15.185 -94.802 14.185 C-93.802 12.185 -93.802 12.185 -91.81 11.487 C-90.489 11.173 -90.489 11.173 -89.142 10.853 C-88.136 10.614 -87.13 10.376 -86.094 10.129 C-84.434 9.755 -84.434 9.755 -82.74 9.373 C-81.595 9.112 -80.451 8.852 -79.272 8.583 C-69.914 6.519 -60.517 4.858 -51.052 3.373 C-50.392 3.268 -49.733 3.163 -49.053 3.055 C-32.651 0.472 -16.569 -0.001 0 0 Z M64.198 10.185 C64.858 10.185 65.518 10.185 66.198 10.185 C66.198 10.845 66.198 11.505 66.198 12.185 C65.538 12.185 64.878 12.185 64.198 12.185 C64.198 11.525 64.198 10.865 64.198 10.185 Z " transform="translate(406.802001953125,86.814697265625)"/>
<path d="M0 0 C26.107 -2.067 52.421 7.113 77 15 C77 15.66 77 16.32 77 17 C75.249 16.885 73.499 16.758 71.75 16.625 C70.775 16.555 69.801 16.486 68.797 16.414 C66.036 16.005 64.441 15.275 62 14 C60.033 13.472 58.052 12.998 56.062 12.562 C55.043 12.337 54.023 12.111 52.973 11.879 C52.379 11.749 51.785 11.62 51.173 11.486 C49.494 11.111 47.818 10.721 46.143 10.326 C38.214 8.458 30.262 6.845 22.25 5.375 C21.096 5.158 19.943 4.942 18.754 4.719 C12.51 3.565 6.321 2.605 0 2 C0 1.34 0 0.68 0 0 Z M78 16 C78.66 16 79.32 16 80 16 C79.67 16.66 79.34 17.32 79 18 C78.67 17.34 78.34 16.68 78 16 Z " transform="translate(428,13)"/>
<path d="M0 0 C0.33 0.66 0.66 1.32 1 2 C0.139 4.037 0.139 4.037 -1.246 6.559 C-1.75 7.493 -2.254 8.427 -2.773 9.389 C-3.322 10.395 -3.872 11.401 -4.438 12.438 C-11.81 26.247 -18.078 40.245 -22.699 55.215 C-24.238 58.51 -26.034 59.959 -29 62 C-28.743 60.414 -28.469 58.832 -28.188 57.25 C-27.961 55.927 -27.961 55.927 -27.73 54.578 C-26.933 51.762 -25.741 50.321 -24 48 C-23.283 45.94 -22.643 43.852 -22.062 41.75 C-20.821 37.257 -19.255 33.324 -17.122 29.209 C-15.888 26.78 -14.757 24.317 -13.633 21.836 C-13.222 20.941 -12.81 20.047 -12.387 19.125 C-11.544 17.288 -10.711 15.447 -9.887 13.602 C-7.279 7.979 -4.668 4.096 0 0 Z " transform="translate(96,271)"/>
<path d="M0 0 C3.236 0.682 5.963 1.842 8.93 3.293 C9.884 3.756 10.839 4.219 11.822 4.696 C13.333 5.434 13.333 5.434 14.875 6.188 C23.496 10.36 32.14 14.361 41 18 C40.34 18.99 39.68 19.98 39 21 C25.785 15.441 12.772 9.521 0 3 C0 2.01 0 1.02 0 0 Z " transform="translate(195,696)"/>
<path d="M0 0 C0.33 0.66 0.66 1.32 1 2 C0.139 4.037 0.139 4.037 -1.246 6.559 C-1.75 7.493 -2.254 8.427 -2.773 9.389 C-3.322 10.395 -3.872 11.401 -4.438 12.438 C-11.81 26.247 -18.078 40.245 -22.699 55.215 C-24.238 58.51 -26.034 59.959 -29 62 C-28.743 60.414 -28.469 58.832 -28.188 57.25 C-27.961 55.927 -27.961 55.927 -27.73 54.578 C-26.933 51.762 -25.741 50.321 -24 48 C-23.283 45.94 -22.643 43.852 -22.062 41.75 C-20.821 37.257 -19.255 33.324 -17.122 29.209 C-15.888 26.78 -14.757 24.317 -13.633 21.836 C-13.222 20.941 -12.81 20.047 -12.387 19.125 C-11.544 17.288 -10.711 15.447 -9.887 13.602 C-7.279 7.979 -4.668 4.096 0 0 Z " transform="translate(96,271)"/>
<path d="M0 0 C4.628 -0.122 8.634 0.215 13.125 1.312 C26.526 4.333 40.288 6.177 54 7 C54 7.33 54 7.66 54 8 C37.784 8.476 22.745 8.049 7 4 C5.483 3.622 3.966 3.244 2.449 2.867 C1.311 2.581 0.173 2.295 -1 2 C-0.67 1.34 -0.34 0.68 0 0 Z " transform="translate(319,825)"/>
<path d="M0 0 C-1.936 2.62 -2.968 2.994 -6.25 3.562 C-7.488 3.707 -8.725 3.851 -10 4 C-13.313 4.857 -16.429 5.749 -19.562 7.125 C-22.488 8.175 -24.911 8.067 -28 8 C-28.99 8.33 -29.98 8.66 -31 9 C-33.332 9.345 -35.665 9.678 -38 10 C-38.708 10.153 -39.415 10.307 -40.145 10.465 C-44.177 11.221 -48.234 11.628 -52.312 12.062 C-53.148 12.153 -53.984 12.244 -54.846 12.338 C-56.897 12.561 -58.948 12.781 -61 13 C-60.67 12.01 -60.34 11.02 -60 10 C-54.317 8.92 -48.634 7.921 -42.906 7.105 C-31.664 5.501 -20.682 3.751 -9.787 0.487 C-6.081 -0.6 -3.69 -1.152 0 0 Z " transform="translate(484,731)"/>
<path d="M0 0 C0.33 0.66 0.66 1.32 1 2 C-12.149 16.433 -12.149 16.433 -19.375 22.875 C-25.825 28.662 -31.461 34.957 -37.012 41.598 C-37.801 42.535 -37.801 42.535 -38.605 43.491 C-39.632 44.714 -40.652 45.943 -41.664 47.179 C-44.788 50.905 -47.828 53.491 -52 56 C-50.341 52.075 -47.692 49.065 -44.938 45.875 C-44.201 45.014 -44.201 45.014 -43.45 44.135 C-39.755 39.833 -35.995 35.591 -32.176 31.398 C-30.7 29.771 -29.239 28.13 -27.793 26.477 C-22.554 20.513 -16.962 15.23 -11 10 C-8.951 8.154 -6.913 6.296 -4.875 4.438 C-3.944 3.591 -3.014 2.744 -2.055 1.871 C-1.377 1.254 -0.699 0.636 0 0 Z " transform="translate(152,95)"/>
<path d="M0 0 C0.33 0.66 0.66 1.32 1 2 C0.139 4.037 0.139 4.037 -1.246 6.559 C-1.75 7.493 -2.254 8.427 -2.773 9.389 C-3.322 10.395 -3.872 11.401 -4.438 12.438 C-11.81 26.247 -18.078 40.245 -22.699 55.215 C-24.238 58.51 -26.034 59.959 -29 62 C-28.743 60.414 -28.469 58.832 -28.188 57.25 C-27.961 55.927 -27.961 55.927 -27.73 54.578 C-26.933 51.762 -25.741 50.321 -24 48 C-23.283 45.94 -22.643 43.852 -22.062 41.75 C-20.821 37.257 -19.255 33.324 -17.122 29.209 C-15.888 26.78 -14.757 24.317 -13.633 21.836 C-13.222 20.941 -12.81 20.047 -12.387 19.125 C-11.544 17.288 -10.711 15.447 -9.887 13.602 C-7.279 7.979 -4.668 4.096 0 0 Z " transform="translate(96,271)"/>
<path d="M0 0 C21.273 12.797 21.273 12.797 24 20 C23.892 22.35 23.892 22.35 23.391 24.914 C23.124 26.302 23.124 26.302 22.852 27.719 C22.653 28.678 22.455 29.637 22.25 30.625 C22.067 31.592 21.884 32.559 21.695 33.555 C20.273 40.727 20.273 40.727 18 43 C18.133 42.261 18.266 41.523 18.402 40.762 C19.318 35.503 20.175 30.238 20.812 24.938 C20.922 24.06 21.032 23.182 21.145 22.277 C20.959 19.358 20.145 18.906 18 17 C16.874 16.135 15.728 15.294 14.566 14.477 C13.917 14.013 13.268 13.548 12.6 13.07 C11.248 12.111 9.894 11.155 8.537 10.203 C4.732 7.472 1.748 4.866 -1 1 C-0.67 0.67 -0.34 0.34 0 0 Z " transform="translate(590,72)"/>
<path d="M0 0 C0.33 0 0.66 0 1 0 C1.428 8.382 0.115 16.22 -1.438 24.438 C-1.668 25.703 -1.898 26.968 -2.135 28.271 C-3.832 37.497 -3.832 37.497 -5 41 C-6.485 41.495 -6.485 41.495 -8 42 C-4.6 4.6 -4.6 4.6 0 0 Z " transform="translate(814,473)"/>
<path d="M0 0 C0.66 0.33 1.32 0.66 2 1 C-5.503 11.028 -12.929 20.682 -24 27 C-22.343 22.651 -19.089 19.909 -15.812 16.75 C-11.447 12.471 -7.221 8.16 -3.27 3.488 C-2 2 -2 2 0 0 Z " transform="translate(241,327)"/>
<path d="M0 0 C4.42 0.603 7.684 2.276 11.562 4.438 C16.733 7.311 16.733 7.311 22 10 C21.01 10.66 20.02 11.32 19 12 C12.73 8.7 6.46 5.4 0 2 C0 1.34 0 0.68 0 0 Z " transform="translate(223,789)"/>
<path d="M0 0 C2.825 1.341 5.216 2.891 7.754 4.715 C8.591 5.312 9.427 5.909 10.289 6.523 C12.436 8.091 14.57 9.675 16.691 11.277 C16.361 11.937 16.031 12.597 15.691 13.277 C9.903 11.107 5.501 8.131 0.691 4.277 C-0.299 3.494 -1.289 2.71 -2.309 1.902 C-2.969 1.366 -3.629 0.83 -4.309 0.277 C-2.309 -0.723 -2.309 -0.723 0 0 Z " transform="translate(656.30859375,122.72265625)"/>
<path d="M0 0 C0.66 0.33 1.32 0.66 2 1 C2 1.66 2 2.32 2 3 C-0.397 5.007 -3.107 6.586 -5.75 8.25 C-6.48 8.735 -7.209 9.219 -7.961 9.719 C-8.67 10.167 -9.379 10.616 -10.109 11.078 C-10.759 11.495 -11.408 11.912 -12.077 12.341 C-14 13 -14 13 -16.243 12.12 C-17.113 11.566 -17.113 11.566 -18 11 C-17.141 10.591 -16.283 10.183 -15.398 9.762 C-11.961 7.98 -8.829 5.984 -5.625 3.812 C-4.565 3.097 -3.506 2.382 -2.414 1.645 C-1.617 1.102 -0.821 0.559 0 0 Z " transform="translate(794,264)"/>
<path d="M0 0 C0 0.66 0 1.32 0 2 C-1.125 2.606 -2.251 3.212 -3.41 3.836 C-13.648 9.401 -23.468 15.299 -33 22 C-33.733 22.515 -34.466 23.03 -35.221 23.561 C-44.42 30.057 -53.425 36.69 -62 44 C-62.66 43.67 -63.32 43.34 -64 43 C-61.077 39.265 -59.23 37.111 -55 35 C-53.221 33.388 -53.221 33.388 -51.562 31.562 C-48.873 28.794 -46.38 26.896 -43 25 C-41.823 24.139 -40.658 23.262 -39.5 22.375 C-31.65 16.425 -23.647 10.666 -14.926 6.059 C-12.724 4.891 -12.724 4.891 -9.75 2.75 C-6.461 0.657 -3.858 0 0 0 Z " transform="translate(240,130)"/>
<path d="M0 0 C0.66 0.33 1.32 0.66 2 1 C-8.012 12.06 -17.829 22.289 -30 31 C-30.66 30.67 -31.32 30.34 -32 30 C-29.48 26.666 -27.047 24.097 -23.688 21.625 C-18.029 17.233 -13.088 12.226 -8.091 7.104 C-7.474 6.474 -6.858 5.844 -6.223 5.195 C-5.674 4.628 -5.125 4.061 -4.559 3.477 C-3 2 -3 2 0 0 Z " transform="translate(827,235)"/>
<path d="M0 0 C0.33 0.66 0.66 1.32 1 2 C0.139 4.037 0.139 4.037 -1.246 6.559 C-1.75 7.493 -2.254 8.427 -2.773 9.389 C-3.322 10.395 -3.872 11.401 -4.438 12.438 C-11.81 26.247 -18.078 40.245 -22.699 55.215 C-24.238 58.51 -26.034 59.959 -29 62 C-28.743 60.414 -28.469 58.832 -28.188 57.25 C-27.961 55.927 -27.961 55.927 -27.73 54.578 C-26.933 51.762 -25.741 50.321 -24 48 C-23.283 45.94 -22.643 43.852 -22.062 41.75 C-20.821 37.257 -19.255 33.324 -17.122 29.209 C-15.888 26.78 -14.757 24.317 -13.633 21.836 C-13.222 20.941 -12.81 20.047 -12.387 19.125 C-11.544 17.288 -10.711 15.447 -9.887 13.602 C-7.279 7.979 -4.668 4.096 0 0 Z " transform="translate(96,271)"/>
<path d="M0 0 C2.31 0.33 4.62 0.66 7 1 C6.67 1.99 6.34 2.98 6 4 C1.545 4.01 1.545 4.01 -3 3 C-2.01 2.67 -1.02 2.34 0 2 C0 1.34 0 0.68 0 0 Z " transform="translate(302,735)"/>
<path d="M0 0 C0.33 0.66 0.66 1.32 1 2 C0.01 3.485 0.01 3.485 -1 5 C-1.99 4.67 -2.98 4.34 -4 4 C-2.926 1.085 -2.926 1.085 0 0 Z " transform="translate(197,392)"/>
<path d="M0 0 C2.31 0.66 4.62 1.32 7 2 C6.67 2.99 6.34 3.98 6 5 C1.545 4.01 1.545 4.01 -3 3 C-2.01 2.67 -1.02 2.34 0 2 C0 1.34 0 0.68 0 0 Z " transform="translate(263,725)"/>
<path d="M0 0 C0.66 0 1.32 0 2 0 C1.385 5.538 1.385 5.538 -0.562 7.875 C-1.274 8.432 -1.274 8.432 -2 9 C-2.66 8.67 -3.32 8.34 -4 8 C-2.68 5.36 -1.36 2.72 0 0 Z " transform="translate(65,203)"/>
<path d="M0 0 C2.375 0.688 2.375 0.688 5 2 C6.312 4.625 6.312 4.625 7 7 C4.03 5.35 1.06 3.7 -2 2 C-1.34 1.34 -0.68 0.68 0 0 Z " transform="translate(654,122)"/>
<path d="M0 0 C4.455 1.98 4.455 1.98 9 4 C9 4.66 9 5.32 9 6 C5.212 5.474 2.828 4.619 0 2 C0 1.34 0 0.68 0 0 Z " transform="translate(544,45)"/>
<path d="M0 0 C2.386 0.576 4.667 1.222 7 2 C7 2.99 7 3.98 7 5 C4.69 4.34 2.38 3.68 0 3 C0 2.01 0 1.02 0 0 Z " transform="translate(253,803)"/>
<path d="M0 0 C1.98 0 3.96 0 6 0 C6 0.66 6 1.32 6 2 C6.99 2.33 7.98 2.66 9 3 C5.234 4.255 3.628 3.371 0 2 C0 1.34 0 0.68 0 0 Z " transform="translate(296,734)"/>
<path d="M0 0 C-4.395 4.004 -4.395 4.004 -6 5 C-6.99 4.67 -7.98 4.34 -9 4 C-6.776 0.665 -4.048 -2.024 0 0 Z " transform="translate(771,279)"/>
<path d="M0 0 C2.962 0.613 4.381 1.254 7 3 C0.565 3.495 0.565 3.495 -6 4 C-6 3.67 -6 3.34 -6 3 C-4.02 3 -2.04 3 0 3 C0 2.01 0 1.02 0 0 Z " transform="translate(838,166)"/>
<path d="M0 0 C0.66 0.33 1.32 0.66 2 1 C-2.293 5.753 -2.293 5.753 -6 6 C-6.66 5.34 -7.32 4.68 -8 4 C-6.713 3.303 -5.421 2.618 -4.125 1.938 C-3.406 1.555 -2.686 1.172 -1.945 0.777 C-1.303 0.521 -0.661 0.264 0 0 Z M-11 5 C-8 6 -8 6 -8 6 Z " transform="translate(246,125)"/>
<path d="M0 0 C0.66 0.33 1.32 0.66 2 1 C2 1.66 2 2.32 2 3 C0.32 4.324 0.32 4.324 -1.875 5.688 C-2.594 6.145 -3.314 6.603 -4.055 7.074 C-5.018 7.532 -5.018 7.532 -6 8 C-6.66 7.67 -7.32 7.34 -8 7 C-5.422 4.352 -3.084 2.056 0 0 Z " transform="translate(794,264)"/>
</svg>